<svg xmlns="http://www.w3.org/2000/svg" xmlns:xlink="http://www.w3.org/1999/xlink" width="65.464" height="78.329" viewBox="0 0 65.464 78.329">
  <defs>
    <linearGradient id="linear-gradient" y1="0.5" x2="1.006" y2="0.5" gradientUnits="objectBoundingBox">
      <stop offset="0" stop-color="#1245c6"/>
      <stop offset="1" stop-color="#9909b7"/>
    </linearGradient>
    <linearGradient id="linear-gradient-2" x1="-0.017" y1="0.477" x2="1.001" y2="0.477" xlink:href="#linear-gradient"/>
  </defs>
  <g id="apple_logo" data-name="apple logo" transform="translate(-3.3 -1.7)">
    <g id="Group_346" data-name="Group 346" transform="translate(3.3 1.7)">
      <g id="Group_345" data-name="Group 345">
        <path id="Path_257" data-name="Path 257" d="M61.574,39.978a17.7,17.7,0,0,1-3.406-10.6A18.756,18.756,0,0,1,61.2,19.544a63.1,63.1,0,0,1,5.3-5.676,26.88,26.88,0,0,0-4.919-4.541A19.031,19.031,0,0,0,51.357,6.3a25.934,25.934,0,0,0-8.325,1.514,20.252,20.252,0,0,1-6.811,1.514,20.581,20.581,0,0,1-6.433-1.514A28.264,28.264,0,0,0,22.22,6.678,16.182,16.182,0,0,0,8.6,13.49c-3.406,4.541-5.3,10.6-5.3,17.785q0,11.352,6.811,23.839c4.541,8.325,9.46,12.109,14.379,12.109a14.115,14.115,0,0,0,6.054-1.514A17.179,17.179,0,0,1,37.356,64.2a18.839,18.839,0,0,1,7.19,1.514,18.607,18.607,0,0,0,6.433,1.514c4.162,0,7.946-3.027,12.109-9.082a41.743,41.743,0,0,0,5.676-11.73A22.061,22.061,0,0,1,61.574,39.978Z" transform="translate(-3.3 11.107)" fill="url(#linear-gradient)"/>
        <path id="Path_258" data-name="Path 258" d="M21.738,16.079A17.093,17.093,0,0,0,25.9,9.646a14.415,14.415,0,0,0,1.514-6.433V1.7c-5.676,1.135-9.46,3.784-11.73,7.19A25.4,25.4,0,0,0,11.9,21a46.5,46.5,0,0,0,4.919-.757A41.251,41.251,0,0,0,21.738,16.079Z" transform="translate(20.643 -1.7)" fill="url(#linear-gradient-2)"/>
      </g>
    </g>
  </g>
</svg>
